<svg xmlns="http://www.w3.org/2000/svg" version="1.1" xmlns:xlink="http://www.w3.org/1999/xlink" xmlns:svgjs="http://svgjs.dev/svgjs" width="1500" height="1500" viewBox="0 0 1500 1500"><rect width="1500" height="1500" fill="#663399"></rect><g transform="matrix(0.6666666666666666,0,0,0.6666666666666666,249.39393939393938,435.99032258064517)"><svg viewBox="0 0 396 248" data-background-color="#663399" preserveAspectRatio="xMidYMid meet" height="939" width="1500" xmlns="http://www.w3.org/2000/svg" xmlns:xlink="http://www.w3.org/1999/xlink"><g id="tight-bounds" transform="matrix(1,0,0,1,0.2400000000000091,0.4000000000000057)"><svg viewBox="0 0 395.52 247.2" height="247.2" width="395.52"><g><svg></svg></g><g><svg viewBox="0 0 395.52 247.2" height="247.2" width="395.52"><mask id="ae52dce7-b0bd-4fb3-bf60-844b8ed81ec0"><rect width="395.52" height="247.2" fill="white"></rect><g transform="matrix(1,0,0,1,0,98.3877756960481)" id="clone"><svg viewBox="0 0 395.52 50.42444860790379" height="50.42444860790379" width="395.52"><g><svg viewBox="0 0 395.52 50.42444860790379" height="50.42444860790379" width="395.52"><g><svg viewBox="0 0 395.52 50.42444860790379" height="50.42444860790379" width="395.52"><g><svg viewBox="0 0 395.52 50.42444860790379" height="50.42444860790379" width="395.52"><g id="SvgjsG3237"><svg viewBox="0 0 395.52 50.42444860790379" height="50.42444860790379" width="395.52" id="SvgjsSvg3236"><g><svg viewBox="0 0 395.52 50.42444860790379" height="50.42444860790379" width="395.52"><g transform="matrix(1,0,0,1,0,0)"><svg width="395.52" viewBox="0.96 -42.84 449.22 58.14" height="50.42444860790379" data-palette-color="#ffffff"><path d="M21.04-30.42L21.04-30.42Q20.8-30.52 20.46-30.76 20.12-31.01 19.48-31.23 18.85-31.45 17.87-31.59 16.89-31.74 15.38-31.64L15.38-31.64 15.38-36.57Q17.53-36.52 19.75-36.11 21.97-35.69 23.34-34.81L23.34-34.81Q23.05-34.18 22.66-33.42 22.27-32.67 21.92-32.01 21.58-31.35 21.34-30.91 21.09-30.47 21.04-30.42ZM4.2-26.51L4.2-26.51Q4.2-28.66 4.93-30.37 5.66-32.08 6.91-33.37 8.15-34.67 9.84-35.42 11.52-36.18 13.38-36.43L13.38-36.43 13.38-31.3Q11.82-30.76 10.79-29.42 9.77-28.08 9.77-26.71L9.77-26.71Q9.77-24.8 10.79-23.63 11.82-22.46 13.38-21.58L13.38-21.58 13.38-16.02Q11.77-16.8 10.16-17.7 8.54-18.6 7.23-19.82 5.91-21.04 5.05-22.66 4.2-24.27 4.2-26.51ZM3.96-2.39L4.98-6.59Q5.66-6.2 6.71-5.83 7.76-5.47 8.89-5.15 10.01-4.83 11.13-4.64 12.26-4.44 13.23-4.44L13.23-4.44 13.38-4.44 13.38 0.2 13.28 0.2Q12.11 0.2 10.86 0.07 9.62-0.05 8.35-0.34 7.08-0.63 5.93-1.15 4.79-1.66 3.96-2.39L3.96-2.39ZM15.38-14.89L15.38-20.61Q16.99-19.87 18.68-19.04 20.36-18.21 21.73-17.02 23.1-15.82 23.97-14.11 24.85-12.4 24.85-9.86L24.85-9.86Q24.85-8.11 24.19-6.45 23.54-4.79 22.34-3.44 21.14-2.1 19.38-1.17 17.63-0.24 15.38 0.05L15.38 0.05 15.38-4.64Q19.38-5.62 19.38-9.96L19.38-9.96Q19.38-11.67 18.26-12.79 17.14-13.92 15.38-14.89L15.38-14.89ZM52.1-27.54L42.43-13.82 53.37 0 46.63 0 38.62-10.55 38.62-17.33 45.46-27.54 52.1-27.54ZM36.62 0L30.66 0 30.66-37.94 36.62-37.94 36.62 0ZM79.98-27.54L85.93-27.54Q83.25-20.36 81.15-14.82 79.05-9.28 77.49-5.1 75.92-0.93 74.73 1.95 73.53 4.83 72.53 6.76 71.53 8.69 70.65 9.79 69.77 10.89 68.84 11.47 67.91 12.06 66.82 12.18 65.72 12.3 64.3 12.3L64.3 12.3Q63.86 12.3 63.28 12.18 62.69 12.06 62.13 11.89 61.57 11.72 61.13 11.55 60.69 11.38 60.54 11.33L60.54 11.33Q60.74 10.45 60.93 9.67L60.93 9.67Q61.08 8.98 61.25 8.37 61.42 7.76 61.52 7.52L61.52 7.52Q61.91 7.52 62.71 7.76 63.52 8.01 63.91 8.01L63.91 8.01Q64.69 8.01 65.3 7.93 65.91 7.86 66.4 7.5 66.89 7.13 67.33 6.42 67.77 5.71 68.31 4.39L68.31 4.39 70.16 0 79.98-27.54ZM71.14-7.37L69.14-2.59 58.88-27.54 64.79-27.54 71.82-9.03 71.14-7.37ZM115.47 0.2L104.29-35.99 110.98-35.99 118.54-7.76 118.54 0.2 115.47 0.2ZM120.55-9.33L128.16-35.99 134.8-35.99 123.09 0.2 120.55 0.2 120.55-9.33ZM147.74-27.54L147.74 0 141.78 0 141.78-27.54 147.74-27.54ZM148.28-36.33L148.28-36.33Q148.28-34.86 147.25-33.86 146.23-32.86 144.76-32.86L144.76-32.86Q143.3-32.86 142.3-33.89 141.3-34.91 141.3-36.33L141.3-36.33Q141.3-37.79 142.32-38.82 143.35-39.84 144.76-39.84L144.76-39.84Q146.23-39.84 147.25-38.82 148.28-37.79 148.28-36.33ZM156.04-27.54L161.31-27.54 161.95-24.76 161.95 0 156.04 0 156.04-27.54ZM176.55-24.51L176.55-24.51Q177.38-23.68 177.84-22.58 178.31-21.48 178.53-20.29 178.74-19.09 178.79-17.87 178.84-16.65 178.84-15.48L178.84-15.48 178.84-0.98 178.84 0 172.89 0 172.89-14.99Q172.89-16.65 172.74-18.16 172.59-19.68 172.06-20.85 171.52-22.02 170.59-22.68 169.66-23.34 168-23.34L168-23.34Q167.32-23.34 166.17-23.12 165.02-22.9 163.95-22.41L163.95-22.41 163.95-26.17Q165.27-26.86 166.81-27.34 168.34-27.83 169.81-27.83L169.81-27.83Q172.01-27.83 173.52-26.93 175.03-26.03 176.55-24.51ZM207.94-23.58L205.3-20.41Q204.57-21.29 203.28-22.05 201.98-22.8 199.84-22.95L199.84-22.95 199.84-27.64Q202.52-27.49 204.45-26.49 206.38-25.49 207.94-23.58L207.94-23.58ZM199.84 0.2L199.84-4.64Q201.59-4.83 202.84-5.49 204.08-6.15 205.21-7.03L205.21-7.03 207.4-3.86Q205.89-1.95 204.13-0.95 202.38 0.05 199.84 0.2L199.84 0.2ZM186.21-13.77L186.21-13.77Q186.21-16.55 187.02-18.99 187.82-21.44 189.39-23.29 190.95-25.15 193.07-26.29 195.2-27.44 197.83-27.64L197.83-27.64 197.83-22.9Q195.39-22.36 193.93-19.9 192.46-17.43 192.46-13.92L192.46-13.92Q192.46-12.11 192.83-10.52 193.2-8.94 193.88-7.71 194.56-6.49 195.56-5.66 196.56-4.83 197.83-4.64L197.83-4.64 197.83 0.2Q195.15 0.05 193-1.1 190.85-2.25 189.34-4.13 187.82-6.01 187.02-8.5 186.21-10.99 186.21-13.77ZM228.35-23.19L228.35-27.78Q230.99-27.54 233.11-26.37 235.23-25.2 236.75-23.34 238.26-21.48 239.07-19.09 239.87-16.7 239.87-14.11L239.87-14.11Q239.87-12.94 239.73-11.77L239.73-11.77 222.98-11.77 222.98-16.06 234.26-16.06Q234.26-17.33 233.84-18.51 233.43-19.68 232.62-20.68 231.82-21.68 230.74-22.36 229.67-23.05 228.35-23.19L228.35-23.19ZM228.15-4.59L228.15-4.59Q228.69-4.59 229.5-4.71 230.3-4.83 231.21-5.15 232.11-5.47 233.01-5.96 233.92-6.45 234.6-7.13L234.6-7.13 236.75-3.86Q235.14-1.86 232.99-0.83 230.84 0.2 227.52 0.2L227.52 0.2Q224.83 0.2 222.49-0.9 220.15-2 218.49-3.91 216.83-5.81 215.85-8.35 214.87-10.89 214.87-13.82L214.87-13.82Q214.87-16.6 215.78-19.09 216.68-21.58 218.24-23.46 219.8-25.34 221.88-26.51 223.95-27.69 226.35-27.83L226.35-27.83 226.35-23.14Q224.54-22.8 223.37-21.68 222.2-20.56 221.54-19.12 220.88-17.68 220.61-16.16 220.34-14.65 220.34-13.57L220.34-13.57Q220.34-11.67 220.81-10.03 221.27-8.4 222.25-7.2 223.22-6.01 224.66-5.3 226.1-4.59 228.15-4.59ZM247.98-27.54L253.25-27.54 253.88-24.76 253.88 0 247.98 0 247.98-27.54ZM268.48-24.51L268.48-24.51Q269.31-23.68 269.78-22.58 270.24-21.48 270.46-20.29 270.68-19.09 270.73-17.87 270.78-16.65 270.78-15.48L270.78-15.48 270.78-0.98 270.78 0 264.82 0 264.82-14.99Q264.82-16.65 264.67-18.16 264.53-19.68 263.99-20.85 263.45-22.02 262.53-22.68 261.6-23.34 259.94-23.34L259.94-23.34Q259.25-23.34 258.11-23.12 256.96-22.9 255.89-22.41L255.89-22.41 255.89-26.17Q257.2-26.86 258.74-27.34 260.28-27.83 261.75-27.83L261.75-27.83Q263.94-27.83 265.46-26.93 266.97-26.03 268.48-24.51ZM286.79-23.54L286.79-8.35Q286.79-6.69 287.23-5.76 287.67-4.83 288.48-4.35 289.28-3.86 290.28-3.74 291.28-3.61 292.41-3.61L292.41-3.61 292.41 0Q291.77 0.1 291.14 0.15L291.14 0.15Q290.6 0.2 289.84 0.22 289.09 0.24 288.35 0.24L288.35 0.24Q287.62 0.24 286.86 0.2 286.11 0.15 285.57 0.05L285.57 0.05Q283.91-0.24 282.98-1.39 282.06-2.54 281.59-3.93 281.13-5.32 281.01-6.64 280.88-7.96 280.88-8.69L280.88-8.69 280.88-23.54 277.27-23.54 277.27-27.54 280.88-27.54 280.88-35.35 286.79-35.35 286.79-27.54 291.19-27.54 291.19-23.54 286.79-23.54ZM313.01 0L313.01-35.99 318.96-35.99 328.63-13.77 328.63-4.74 327.07-4.74 318.96-24.76 318.96 0 313.01 0ZM330.63-13.67L340.3-35.99 346.26-35.99 346.26 0 340.3 0 340.3-24.76 332.25-4.74 330.63-4.74 330.63-13.67ZM360.71-27.54L360.71-12.55Q360.71-10.84 360.86-9.35 361-7.86 361.49-6.74 361.98-5.62 362.96-4.93 363.93-4.25 365.54-4.25L365.54-4.25Q366.18-4.25 367.35-4.44 368.52-4.64 369.6-5.08L369.6-5.08 369.6-1.46Q368.33-0.78 366.84-0.27 365.35 0.24 363.88 0.24L363.88 0.24Q362.71 0.24 361.78 0.02 360.86-0.2 360.05-0.66 359.24-1.12 358.51-1.71 357.78-2.29 357.05-3.03L357.05-3.03Q356.22-3.86 355.73-4.96 355.24-6.05 355.02-7.25 354.8-8.45 354.78-9.67 354.75-10.89 354.75-12.06L354.75-12.06 354.75-27.54 360.71-27.54ZM371.6-27.54L377.56-27.54 377.56 0 372.23 0 371.6-2.83 371.6-27.54ZM385.22-19.68L385.22-19.68Q385.22-21.53 385.9-23.02 386.59-24.51 387.81-25.56 389.03-26.61 390.57-27.22 392.1-27.83 393.76-27.98L393.76-27.98 393.76-23.1Q392.49-22.85 391.79-22.07 391.08-21.29 391.08-19.87L391.08-19.87Q391.08-18.7 391.84-17.99 392.59-17.29 393.76-16.75L393.76-16.75 393.76-11.52Q392.93-11.77 392.08-12.08 391.22-12.4 390.39-12.79L390.39-12.79Q387.81-14.16 386.51-15.67 385.22-17.19 385.22-19.68ZM403.43-25.78L401.53-21.73Q400.21-22.41 398.72-22.75 397.23-23.1 395.77-23.19L395.77-23.19 395.77-28.03Q397.96-27.93 399.82-27.42 401.67-26.9 403.43-25.78L403.43-25.78ZM385.32-2.2L387.81-6.15Q388.78-5.47 390.13-4.88 391.47-4.3 393.52-4.3L393.52-4.3 393.76-4.3 393.76 0.24Q392.54 0.24 391.52 0.17 390.49 0.1 389.49-0.17 388.49-0.44 387.47-0.93 386.44-1.42 385.32-2.2L385.32-2.2ZM395.77-10.79L395.77-15.97Q397.23-15.48 398.74-14.89 400.26-14.31 401.5-13.43 402.75-12.55 403.55-11.25 404.36-9.96 404.36-8.01L404.36-8.01Q404.36-6.1 403.68-4.69 402.99-3.27 401.84-2.25 400.7-1.22 399.13-0.63 397.57-0.05 395.77 0.15L395.77 0.15 395.77-4.49Q397.43-4.79 398.33-5.54 399.23-6.3 399.23-7.57L399.23-7.57Q399.23-8.84 398.23-9.55 397.23-10.25 395.77-10.79L395.77-10.79ZM417.93-27.54L417.93 0 411.97 0 411.97-27.54 417.93-27.54ZM418.47-36.33L418.47-36.33Q418.47-34.86 417.44-33.86 416.42-32.86 414.95-32.86L414.95-32.86Q413.49-32.86 412.49-33.89 411.49-34.91 411.49-36.33L411.49-36.33Q411.49-37.79 412.51-38.82 413.54-39.84 414.95-39.84L414.95-39.84Q416.42-39.84 417.44-38.82 418.47-37.79 418.47-36.33ZM447.18-23.58L444.54-20.41Q443.81-21.29 442.51-22.05 441.22-22.8 439.07-22.95L439.07-22.95 439.07-27.64Q441.76-27.49 443.69-26.49 445.61-25.49 447.18-23.58L447.18-23.58ZM439.07 0.2L439.07-4.64Q440.83-4.83 442.07-5.49 443.32-6.15 444.44-7.03L444.44-7.03 446.64-3.86Q445.13-1.95 443.37-0.95 441.61 0.05 439.07 0.2L439.07 0.2ZM425.45-13.77L425.45-13.77Q425.45-16.55 426.25-18.99 427.06-21.44 428.62-23.29 430.18-25.15 432.31-26.29 434.43-27.44 437.07-27.64L437.07-27.64 437.07-22.9Q434.63-22.36 433.16-19.9 431.7-17.43 431.7-13.92L431.7-13.92Q431.7-12.11 432.06-10.52 432.43-8.94 433.11-7.71 433.8-6.49 434.8-5.66 435.8-4.83 437.07-4.64L437.07-4.64 437.07 0.2Q434.38 0.05 432.24-1.1 430.09-2.25 428.57-4.13 427.06-6.01 426.25-8.5 425.45-10.99 425.45-13.77Z" opacity="1" transform="matrix(1,0,0,1,0,0)" fill="black" class="wordmark-text-0" id="SvgjsPath3235" stroke-width="5" stroke="black" stroke-linejoin="round"></path></svg></g></svg></g></svg></g></svg></g></svg></g></svg></g></svg></g></mask><g mask="url(#ae52dce7-b0bd-4fb3-bf60-844b8ed81ec0)"><g><path d="M70.634 73.724v0c-0.652-0.272-1.44-0.734-2.365-1.386-0.924-0.679-2.256-1.318-3.995-1.916-1.712-0.598-3.9-1.087-6.563-1.468-2.663-0.408-6.047-0.476-10.151-0.204v0-20.097c5.843 0.136 11.781 0.761 17.815 1.875 6.033 1.141 10.912 2.908 14.635 5.3v0c-0.788 1.712-1.712 3.601-2.772 5.666-1.06 2.038-2.065 3.954-3.017 5.748-0.924 1.794-1.712 3.288-2.364 4.484-0.679 1.196-1.087 1.862-1.223 1.998zM1.985 89.663v0c0-5.843 0.992-11.088 2.976-15.735 1.984-4.647 4.674-8.724 8.071-12.23 3.37-3.533 7.351-6.319 11.944-8.357 4.566-2.065 9.376-3.438 14.431-4.117v0 20.912c-4.24 1.468-7.759 4.022-10.558 7.664-2.772 3.642-4.158 7.324-4.158 11.048v0c0 5.191 1.386 9.376 4.158 12.555 2.799 3.18 6.319 5.965 10.558 8.357v0 22.666c-4.375-2.12-8.751-4.403-13.126-6.849-4.403-2.446-8.384-5.327-11.944-8.642-3.587-3.316-6.55-7.175-8.887-11.577-2.31-4.375-3.465-9.607-3.465-15.695zM1.007 187.989l4.158-17.122c1.848 1.06 4.199 2.093 7.052 3.098 2.854 0.978 5.816 1.902 8.887 2.773 3.044 0.87 6.088 1.563 9.131 2.079 3.071 0.544 5.925 0.815 8.561 0.815v0h0.611v18.915h-0.407c-3.18 0-6.468-0.177-9.865-0.53-3.37-0.326-6.781-0.883-10.233-1.671-3.451-0.788-6.74-1.889-9.865-3.302-3.098-1.386-5.775-3.071-8.03-5.055zM47.56 137.032v-23.318c4.375 2.011 8.86 4.144 13.453 6.401 4.566 2.256 8.71 5.001 12.433 8.234 3.723 3.261 6.767 7.215 9.132 11.863 2.392 4.647 3.587 10.422 3.587 17.325v0c0 4.756-0.897 9.39-2.69 13.901-1.766 4.511-4.28 8.601-7.542 12.27-3.261 3.642-7.283 6.726-12.066 9.254-4.756 2.527-10.191 4.185-16.307 4.973v0-19.118c10.871-2.663 16.306-9.892 16.307-21.688v0c0-4.647-1.522-8.493-4.566-11.536-3.044-3.071-6.957-5.925-11.741-8.561zM150.289 198.547l-45.616-147.53h27.272l30.859 115.081v32.449zM170.957 159.698l31.063-108.681h27.068l-47.777 147.53h-10.354zM258.969 197.732v-146.715h24.255l39.42 90.581v36.811h-6.359l-33.061-81.612v100.935zM330.797 142.006l39.42-90.989h24.296v146.715h-24.296v-100.935l-32.856 81.612h-6.564z" fill="#ffffff" fill-rule="nonzero" stroke="none" stroke-width="1" stroke-linecap="butt" stroke-linejoin="miter" stroke-miterlimit="10" stroke-dasharray="" stroke-dashoffset="0" font-family="none" font-weight="none" font-size="none" text-anchor="none" style="mix-blend-mode: normal" data-fill-palette-color="tertiary"></path></g></g><g transform="matrix(1,0,0,1,0,98.3877756960481)"><svg viewBox="0 0 395.52 50.42444860790379" height="50.42444860790379" width="395.52"><g><svg viewBox="0 0 395.52 50.42444860790379" height="50.42444860790379" width="395.52"><g><svg viewBox="0 0 395.52 50.42444860790379" height="50.42444860790379" width="395.52"><g><svg viewBox="0 0 395.52 50.42444860790379" height="50.42444860790379" width="395.52"><g id="textblocktransform"><svg viewBox="0 0 395.52 50.42444860790379" height="50.42444860790379" width="395.52" id="textblock"><g><svg viewBox="0 0 395.52 50.42444860790379" height="50.42444860790379" width="395.52"><g transform="matrix(1,0,0,1,0,0)"><svg width="395.52" viewBox="0.96 -42.84 449.22 58.14" height="50.42444860790379" data-palette-color="#ffffff"><path d="M21.04-30.42L21.04-30.42Q20.8-30.52 20.46-30.76 20.12-31.01 19.48-31.23 18.85-31.45 17.87-31.59 16.89-31.74 15.38-31.64L15.38-31.64 15.38-36.57Q17.53-36.52 19.75-36.11 21.97-35.69 23.34-34.81L23.34-34.81Q23.05-34.18 22.66-33.42 22.27-32.67 21.92-32.01 21.58-31.35 21.34-30.91 21.09-30.47 21.04-30.42ZM4.2-26.51L4.2-26.51Q4.2-28.66 4.93-30.37 5.66-32.08 6.91-33.37 8.15-34.67 9.84-35.42 11.52-36.18 13.38-36.43L13.38-36.43 13.38-31.3Q11.82-30.76 10.79-29.42 9.77-28.08 9.77-26.71L9.77-26.71Q9.77-24.8 10.79-23.63 11.82-22.46 13.38-21.58L13.38-21.58 13.38-16.02Q11.77-16.8 10.16-17.7 8.54-18.6 7.23-19.82 5.91-21.04 5.05-22.66 4.2-24.27 4.2-26.51ZM3.96-2.39L4.98-6.59Q5.66-6.2 6.71-5.83 7.76-5.47 8.89-5.15 10.01-4.83 11.13-4.64 12.26-4.44 13.23-4.44L13.23-4.44 13.38-4.44 13.38 0.2 13.28 0.2Q12.11 0.2 10.86 0.07 9.62-0.05 8.35-0.34 7.08-0.63 5.93-1.15 4.79-1.66 3.96-2.39L3.96-2.39ZM15.38-14.89L15.38-20.61Q16.99-19.87 18.68-19.04 20.36-18.21 21.73-17.02 23.1-15.82 23.97-14.11 24.85-12.4 24.85-9.86L24.85-9.86Q24.85-8.11 24.19-6.45 23.54-4.79 22.34-3.44 21.14-2.1 19.38-1.17 17.63-0.24 15.38 0.05L15.38 0.05 15.38-4.64Q19.38-5.62 19.38-9.96L19.38-9.96Q19.38-11.67 18.26-12.79 17.14-13.92 15.38-14.89L15.38-14.89ZM52.1-27.54L42.43-13.82 53.37 0 46.63 0 38.62-10.55 38.62-17.33 45.46-27.54 52.1-27.54ZM36.62 0L30.66 0 30.66-37.94 36.62-37.94 36.62 0ZM79.98-27.54L85.93-27.54Q83.25-20.36 81.15-14.82 79.05-9.28 77.49-5.1 75.92-0.93 74.73 1.95 73.53 4.83 72.53 6.76 71.53 8.69 70.65 9.79 69.77 10.89 68.84 11.47 67.91 12.06 66.82 12.18 65.72 12.3 64.3 12.3L64.3 12.3Q63.86 12.3 63.28 12.18 62.69 12.06 62.13 11.89 61.57 11.72 61.13 11.55 60.69 11.38 60.54 11.33L60.54 11.33Q60.74 10.45 60.93 9.67L60.93 9.67Q61.08 8.98 61.25 8.37 61.42 7.76 61.52 7.52L61.52 7.52Q61.91 7.52 62.71 7.76 63.52 8.01 63.91 8.01L63.91 8.01Q64.69 8.01 65.3 7.93 65.91 7.86 66.4 7.5 66.89 7.13 67.33 6.42 67.77 5.71 68.31 4.39L68.31 4.39 70.16 0 79.98-27.54ZM71.14-7.37L69.14-2.59 58.88-27.54 64.79-27.54 71.82-9.03 71.14-7.37ZM115.47 0.2L104.29-35.99 110.98-35.99 118.54-7.76 118.54 0.2 115.47 0.2ZM120.55-9.33L128.16-35.99 134.8-35.99 123.09 0.2 120.55 0.2 120.55-9.33ZM147.74-27.54L147.74 0 141.78 0 141.78-27.54 147.74-27.54ZM148.28-36.33L148.28-36.33Q148.28-34.86 147.25-33.86 146.23-32.86 144.76-32.86L144.76-32.86Q143.3-32.86 142.3-33.89 141.3-34.91 141.3-36.33L141.3-36.33Q141.3-37.79 142.32-38.82 143.35-39.84 144.76-39.84L144.76-39.84Q146.23-39.84 147.25-38.82 148.28-37.79 148.28-36.33ZM156.04-27.54L161.31-27.54 161.95-24.76 161.95 0 156.04 0 156.04-27.54ZM176.55-24.51L176.55-24.51Q177.38-23.68 177.84-22.58 178.31-21.48 178.53-20.29 178.74-19.09 178.79-17.87 178.84-16.65 178.84-15.48L178.84-15.48 178.84-0.98 178.84 0 172.89 0 172.89-14.99Q172.89-16.65 172.74-18.16 172.59-19.68 172.06-20.85 171.52-22.02 170.59-22.68 169.66-23.34 168-23.34L168-23.34Q167.32-23.34 166.17-23.12 165.02-22.9 163.95-22.41L163.95-22.41 163.95-26.17Q165.27-26.86 166.81-27.34 168.34-27.83 169.81-27.83L169.81-27.83Q172.01-27.83 173.52-26.93 175.03-26.03 176.55-24.51ZM207.94-23.58L205.3-20.41Q204.57-21.29 203.28-22.05 201.98-22.8 199.84-22.95L199.84-22.95 199.84-27.64Q202.52-27.49 204.45-26.49 206.38-25.49 207.94-23.58L207.94-23.58ZM199.84 0.2L199.84-4.64Q201.59-4.83 202.84-5.49 204.08-6.15 205.21-7.03L205.21-7.03 207.4-3.86Q205.89-1.95 204.13-0.95 202.38 0.05 199.84 0.2L199.84 0.2ZM186.21-13.77L186.21-13.77Q186.21-16.55 187.02-18.99 187.82-21.44 189.39-23.29 190.95-25.15 193.07-26.29 195.2-27.44 197.83-27.64L197.83-27.64 197.83-22.9Q195.39-22.36 193.93-19.9 192.46-17.43 192.46-13.92L192.46-13.92Q192.46-12.11 192.83-10.52 193.2-8.94 193.88-7.71 194.56-6.49 195.56-5.66 196.56-4.83 197.83-4.64L197.83-4.64 197.83 0.2Q195.15 0.05 193-1.1 190.85-2.25 189.34-4.13 187.82-6.01 187.02-8.5 186.21-10.99 186.21-13.77ZM228.35-23.19L228.35-27.78Q230.99-27.54 233.11-26.37 235.23-25.2 236.75-23.34 238.26-21.48 239.07-19.09 239.87-16.7 239.87-14.11L239.87-14.11Q239.87-12.94 239.73-11.77L239.73-11.77 222.98-11.77 222.98-16.06 234.26-16.06Q234.26-17.33 233.84-18.51 233.43-19.68 232.62-20.68 231.82-21.68 230.74-22.36 229.67-23.05 228.35-23.19L228.35-23.19ZM228.15-4.59L228.15-4.59Q228.69-4.59 229.5-4.71 230.3-4.83 231.21-5.15 232.11-5.47 233.01-5.96 233.92-6.45 234.6-7.13L234.6-7.13 236.75-3.86Q235.14-1.86 232.99-0.83 230.84 0.2 227.52 0.2L227.52 0.2Q224.83 0.2 222.49-0.9 220.15-2 218.49-3.91 216.83-5.81 215.85-8.35 214.87-10.89 214.87-13.82L214.87-13.82Q214.87-16.6 215.78-19.09 216.68-21.58 218.24-23.46 219.8-25.34 221.88-26.51 223.95-27.69 226.35-27.83L226.35-27.83 226.35-23.14Q224.54-22.8 223.37-21.68 222.2-20.56 221.54-19.12 220.88-17.68 220.61-16.16 220.34-14.65 220.34-13.57L220.34-13.57Q220.34-11.67 220.81-10.03 221.27-8.4 222.25-7.2 223.22-6.01 224.66-5.3 226.1-4.59 228.15-4.59ZM247.98-27.54L253.25-27.54 253.88-24.76 253.88 0 247.98 0 247.98-27.54ZM268.48-24.51L268.48-24.51Q269.31-23.68 269.78-22.58 270.24-21.48 270.46-20.29 270.68-19.09 270.73-17.87 270.78-16.65 270.78-15.48L270.78-15.48 270.78-0.98 270.78 0 264.82 0 264.82-14.99Q264.82-16.65 264.67-18.16 264.53-19.68 263.99-20.85 263.45-22.02 262.53-22.68 261.6-23.34 259.94-23.34L259.94-23.34Q259.25-23.34 258.11-23.12 256.96-22.9 255.89-22.41L255.89-22.41 255.89-26.17Q257.2-26.86 258.74-27.34 260.28-27.83 261.75-27.83L261.75-27.83Q263.94-27.83 265.46-26.93 266.97-26.03 268.48-24.51ZM286.79-23.54L286.79-8.35Q286.79-6.69 287.23-5.76 287.67-4.83 288.48-4.35 289.28-3.86 290.28-3.74 291.28-3.61 292.41-3.61L292.41-3.61 292.41 0Q291.77 0.1 291.14 0.15L291.14 0.15Q290.6 0.2 289.84 0.22 289.09 0.24 288.35 0.24L288.35 0.24Q287.62 0.24 286.86 0.2 286.11 0.15 285.57 0.05L285.57 0.05Q283.91-0.24 282.98-1.39 282.06-2.54 281.59-3.93 281.13-5.32 281.01-6.64 280.88-7.96 280.88-8.69L280.88-8.69 280.88-23.54 277.27-23.54 277.27-27.54 280.88-27.54 280.88-35.35 286.79-35.35 286.79-27.54 291.19-27.54 291.19-23.54 286.79-23.54ZM313.01 0L313.01-35.99 318.96-35.99 328.63-13.77 328.63-4.74 327.07-4.74 318.96-24.76 318.96 0 313.01 0ZM330.63-13.67L340.3-35.99 346.26-35.99 346.26 0 340.3 0 340.3-24.76 332.25-4.74 330.63-4.74 330.63-13.67ZM360.71-27.54L360.71-12.55Q360.71-10.84 360.86-9.35 361-7.86 361.49-6.74 361.98-5.62 362.96-4.93 363.93-4.25 365.54-4.25L365.54-4.25Q366.18-4.25 367.35-4.44 368.52-4.64 369.6-5.08L369.6-5.08 369.6-1.46Q368.33-0.78 366.84-0.27 365.35 0.24 363.88 0.24L363.88 0.24Q362.71 0.24 361.78 0.02 360.86-0.2 360.05-0.66 359.24-1.12 358.51-1.71 357.78-2.29 357.05-3.03L357.05-3.03Q356.22-3.86 355.73-4.96 355.24-6.05 355.02-7.25 354.8-8.45 354.78-9.67 354.75-10.89 354.75-12.06L354.75-12.06 354.75-27.54 360.71-27.54ZM371.6-27.54L377.56-27.54 377.56 0 372.23 0 371.6-2.83 371.6-27.54ZM385.22-19.68L385.22-19.68Q385.22-21.53 385.9-23.02 386.59-24.51 387.81-25.56 389.03-26.61 390.57-27.22 392.1-27.83 393.76-27.98L393.76-27.98 393.76-23.1Q392.49-22.85 391.79-22.07 391.08-21.29 391.08-19.87L391.08-19.87Q391.08-18.7 391.84-17.99 392.59-17.29 393.76-16.75L393.76-16.75 393.76-11.52Q392.93-11.77 392.08-12.08 391.22-12.4 390.39-12.79L390.39-12.79Q387.81-14.16 386.51-15.67 385.22-17.19 385.22-19.68ZM403.43-25.78L401.53-21.73Q400.21-22.41 398.72-22.75 397.23-23.1 395.77-23.19L395.77-23.19 395.77-28.03Q397.96-27.93 399.82-27.42 401.67-26.9 403.43-25.78L403.43-25.78ZM385.32-2.2L387.81-6.15Q388.78-5.47 390.13-4.88 391.47-4.3 393.52-4.3L393.52-4.3 393.76-4.3 393.76 0.24Q392.54 0.24 391.52 0.17 390.49 0.1 389.49-0.17 388.49-0.44 387.47-0.93 386.44-1.42 385.32-2.2L385.32-2.2ZM395.77-10.79L395.77-15.97Q397.23-15.48 398.74-14.89 400.26-14.31 401.5-13.43 402.75-12.55 403.55-11.25 404.36-9.96 404.36-8.01L404.36-8.01Q404.36-6.1 403.68-4.69 402.99-3.27 401.84-2.25 400.7-1.22 399.13-0.63 397.57-0.05 395.77 0.15L395.77 0.15 395.77-4.49Q397.43-4.79 398.33-5.54 399.23-6.3 399.23-7.57L399.23-7.57Q399.23-8.84 398.23-9.55 397.23-10.25 395.77-10.79L395.77-10.79ZM417.93-27.54L417.93 0 411.97 0 411.97-27.54 417.93-27.54ZM418.47-36.33L418.47-36.33Q418.47-34.86 417.44-33.86 416.42-32.86 414.95-32.86L414.95-32.86Q413.49-32.86 412.49-33.89 411.49-34.91 411.49-36.33L411.49-36.33Q411.49-37.79 412.51-38.82 413.54-39.84 414.95-39.84L414.95-39.84Q416.42-39.84 417.44-38.82 418.47-37.79 418.47-36.33ZM447.18-23.58L444.54-20.41Q443.81-21.29 442.51-22.05 441.22-22.8 439.07-22.95L439.07-22.95 439.07-27.64Q441.76-27.49 443.69-26.49 445.61-25.49 447.18-23.58L447.18-23.58ZM439.07 0.2L439.07-4.64Q440.83-4.83 442.07-5.49 443.32-6.15 444.44-7.03L444.44-7.03 446.64-3.86Q445.13-1.95 443.37-0.95 441.61 0.05 439.07 0.2L439.07 0.2ZM425.45-13.77L425.45-13.77Q425.45-16.55 426.25-18.99 427.06-21.44 428.62-23.29 430.18-25.15 432.31-26.29 434.43-27.44 437.07-27.64L437.07-27.64 437.07-22.9Q434.63-22.36 433.16-19.9 431.7-17.43 431.7-13.92L431.7-13.92Q431.7-12.11 432.06-10.52 432.43-8.94 433.11-7.71 433.8-6.49 434.8-5.66 435.8-4.83 437.07-4.64L437.07-4.64 437.07 0.2Q434.38 0.05 432.24-1.1 430.09-2.25 428.57-4.13 427.06-6.01 426.25-8.5 425.45-10.99 425.45-13.77Z" opacity="1" transform="matrix(1,0,0,1,0,0)" fill="#ffffff" class="wordmark-text-0" data-fill-palette-color="primary" id="text-0"></path></svg></g></svg></g></svg></g></svg></g></svg></g></svg></g></svg></g></svg></g><defs></defs></svg><rect width="395.52" height="247.2" fill="none" stroke="none" visibility="hidden"></rect></g></svg></g></svg>